<svg aria-hidden="true" style="position: absolute; width: 0; height: 0; overflow: hidden;" version="1.1" xmlns="http://www.w3.org/2000/svg" xmlns:xlink="http://www.w3.org/1999/xlink">
<defs>
<symbol id="icon-ice-cream-modal" viewBox="0 0 32 32">
<path d="M14.93 0.396c-2.294 0.429-4.127 1.981-4.857 4.109-0.245 0.711-0.325 1.447-0.282 2.564 0.018 0.601 0.006 1.055-0.031 1.147-0.031 0.086-0.227 0.374-0.429 0.644-0.595 0.791-0.791 1.668-0.503 2.238 0.215 0.423 0.797 0.73 1.392 0.736 0.466 0 0.601-0.049 1.165-0.436 0.84-0.57 0.994-0.564 1.705 0.129 0.27 0.27 0.595 0.527 0.717 0.583 0.46 0.19 0.889 0.098 1.49-0.313 0.877-0.601 1.006-0.589 1.779 0.159 0.307 0.294 0.62 0.552 0.693 0.583 0.288 0.086 0.571-0.025 0.865-0.349 0.779-0.852 0.687-0.785 1.098-0.785 0.325 0 0.442 0.037 1.024 0.337 0.73 0.374 0.957 0.411 1.453 0.227 0.901-0.325 1.288-1.043 1-1.858-0.055-0.141-0.264-0.491-0.466-0.773-0.564-0.779-0.552-0.736-0.509-2.214 0.031-0.877 0.019-1.404-0.031-1.699-0.405-2.386-2.189-4.293-4.594-4.919-0.76-0.196-1.95-0.245-2.68-0.11z"></path>
<path d="M11.71 12.355c-0.221 0.147-0.436 0.27-0.484 0.276-0.055 0-0.068 0.049-0.037 0.165 0.025 0.098 1.018 4.268 2.214 9.273 1.447 6.059 2.22 9.187 2.312 9.353 0.19 0.343 0.386 0.343 0.577 0 0.092-0.159 0.595-2.159 1.429-5.673 0.717-2.98 1.693-7.090 2.183-9.126 0.484-2.042 0.871-3.716 0.859-3.729s-0.221-0.147-0.466-0.288l-0.448-0.27-0.497 0.509c-0.436 0.448-0.54 0.521-0.859 0.613-0.705 0.209-1.282 0.018-1.92-0.626-0.209-0.215-0.405-0.386-0.442-0.386s-0.221 0.11-0.417 0.245c-0.736 0.521-1.668 0.626-2.38 0.276-0.19-0.092-0.521-0.331-0.736-0.527-0.209-0.202-0.405-0.362-0.436-0.356-0.030-0-0.233 0.122-0.453 0.269z"></path>
</symbol>
</defs>
</svg>
